<?xml version="1.0" encoding="utf-8"?>
<!-- Generator: Adobe Illustrator 14.0.0, SVG Export Plug-In . SVG Version: 6.00 Build 43363)  -->
<!DOCTYPE svg PUBLIC "-//W3C//DTD SVG 1.1//EN" "http://www.w3.org/Graphics/SVG/1.1/DTD/svg11.dtd">
<svg version="1.1" id="Calque_1" xmlns="http://www.w3.org/2000/svg" xmlns:xlink="http://www.w3.org/1999/xlink" x="0px" y="0px"
	 width="133.917px" height="102.639px" viewBox="0 0 133.917 102.639" enable-background="new 0 0 133.917 102.639"
	 xml:space="preserve">
<path fill-rule="evenodd" clip-rule="evenodd" fill="#FFFFFF" d="M63.334,57.03c0.024,0.736-0.415,1.463-0.617,2.168
	C62.668,58.448,62.844,57.559,63.334,57.03z"/>
<path fill-rule="evenodd" clip-rule="evenodd" d="M100.333,59.979c0.025-0.006,0.049-0.012,0.074-0.018
	c0.596,1.582,0.879,3.703,1.432,5.381c0.043,0.156,0.297-0.035,0.344,0.113c-0.127,0.209-0.496,0.27-0.775,0.387
	c-0.037-0.148-0.072-0.299-0.109-0.447c-0.998,1.381-3.1,0.793-3.309-1.09c-0.135-1.213,1.039-2.342,2.508-2.035
	c-0.02-0.369-0.176-0.965-0.318-1.305c-0.145-0.199-0.496-0.057-0.707-0.145C99.597,60.442,100.075,60.278,100.333,59.979z
	 M99.556,62.461c-1.803,0.469-1.107,3.602,0.473,3.4c0.619-0.078,0.855-0.482,1.188-0.803c-0.203-0.834-0.406-1.666-0.609-2.5
	C100.245,62.422,99.952,62.358,99.556,62.461z"/>
<path fill-rule="evenodd" clip-rule="evenodd" d="M56.197,70.865c0.059,0.193-0.235,0.174-0.327,0.277
	c-0.398,0.43,0.093,1.676,0.338,2.684c0.214,0.877,0.387,1.713,0.611,2.34c0.046,0.082,0.147,0.07,0.194,0.15
	c0.625-0.129,1.312-0.182,1.707-0.455c0.526-0.365,0.443-1.09,0.864-1.477c0.022,0.492-0.2,1.105-0.27,1.646
	c-1.188,0.264-2.45,0.65-3.59,0.838c0.056-0.236,0.478-0.252,0.534-0.566c0.092-0.52-0.339-1.549-0.555-2.434
	c-0.199-0.816-0.325-1.988-0.686-2.322c-0.179-0.166-0.517-0.102-0.641-0.199C54.791,71.09,55.677,70.951,56.197,70.865z"/>
<path fill-rule="evenodd" clip-rule="evenodd" d="M80.698,65.836c-0.578-0.203-0.01-1.127,0.422-0.695
	C81.382,65.401,81.257,65.893,80.698,65.836z"/>
<path fill-rule="evenodd" clip-rule="evenodd" d="M65.136,72.518c-1.02,0.248-2.039,0.496-3.059,0.746
	c0.14,1.445,1.921,1.719,2.733,0.834c0.126-0.137,0.206-0.273,0.291-0.426c0.061-0.109,0.096-0.391,0.309-0.352
	c0.109,0.254-0.112,0.65-0.294,0.9c-0.485,0.672-1.708,1.105-2.573,0.629c-1.004-0.553-1.297-2.086-0.728-2.984
	C62.581,70.656,64.89,70.637,65.136,72.518z M62.023,73.039c0.846-0.205,1.691-0.412,2.536-0.619
	C64.267,70.364,61.649,71.459,62.023,73.039z"/>
<path fill-rule="evenodd" clip-rule="evenodd" d="M73.671,68.459c0.148,0.162,0.131,0.379,0.191,0.625
	c0.158-0.557,1.24-1.406,1.566-0.383c0.244-0.268,0.291-0.613,0.602-0.777c1.439-0.766,1.301,2.254,1.824,3.27
	c0.063,0.176,0.346-0.012,0.428,0.133c-0.215,0.207-0.898,0.299-1.223,0.336c-0.057-0.203,0.299-0.158,0.318-0.314
	c-0.369-0.717-0.371-3.215-1.117-3.125c-0.35,0.041-0.672,0.635-0.666,0.992c0.01,0.746,0.531,1.65,0.582,2.387
	c0.061,0.178,0.344-0.01,0.428,0.133c-0.18,0.199-0.824,0.283-1.111,0.311c-0.076-0.195,0.252-0.143,0.244-0.297
	c-0.27-0.703-0.398-2.17-0.682-2.797c-0.381-0.84-0.939,0.205-1.066,0.654c0.209,0.789,0.406,1.82,0.629,2.416
	c0.084,0.125,0.346-0.047,0.42,0.096c-0.18,0.201-1.023,0.328-1.186,0.328c-0.158-0.168,0.279-0.141,0.281-0.305
	c-0.225-0.92-0.449-1.842-0.674-2.762c-0.1-0.061-0.234-0.066-0.4-0.02C73.091,68.969,73.501,68.66,73.671,68.459z"/>
<path fill-rule="evenodd" clip-rule="evenodd" d="M81.392,66.576c0.17,0.326,0.281,0.994,0.447,1.668
	c0.156,0.641,0.221,1.479,0.512,1.773c0.367,0.371,0.932-0.158,1.451-0.039c-0.896,0.375-2.305,0.643-3.348,0.855
	c0.047-0.264,0.613-0.213,0.906-0.338c0.236-0.102,0.348-0.242,0.412-0.418c-0.117-0.77-0.371-1.756-0.609-2.498
	c-0.289-0.137-0.998,0.141-1.24,0.104c-0.08-0.223,0.398-0.287,0.645-0.434C80.974,67.012,81.13,66.668,81.392,66.576z"/>
<path fill-rule="evenodd" clip-rule="evenodd" d="M86.427,65.348c0.205,0.133,0.189,0.629,0.303,0.914
	c0.273-0.305,0.531-0.986,1.086-1.215c0.477-0.195,1.156-0.121,1.293,0.277c0.08,0.232-0.068,0.498-0.227,0.529
	c-0.252,0.051-0.545-0.488-0.938-0.441c-0.641,0.076-0.842,0.725-1.125,1.223c0.262,0.617,0.213,1.551,0.529,2.004
	c0.219,0.313,0.508,0.148,0.855,0.266c-0.5,0.279-1.473,0.439-2.08,0.547c0.027-0.203,0.297-0.225,0.432-0.342
	c0.152-0.133,0.195-0.232,0.252-0.418c-0.211-0.766-0.352-1.65-0.609-2.34c-0.139-0.156-0.438-0.047-0.652-0.078
	c-0.045-0.203,0.211-0.357,0.357-0.482C86.085,65.635,86.279,65.502,86.427,65.348z"/>
<path fill-rule="evenodd" clip-rule="evenodd" d="M95.591,66.787c0.277,0.102,0.438-0.273,0.598-0.146
	c0.061,0.295-0.391,0.68-0.869,0.646c-0.111-0.113-0.205-0.256-0.24-0.494c-0.496,0.863-2.895,1.725-3.102,0.084
	c-0.137-1.076,1.57-1.752,2.729-1.613c-0.131-0.887-0.385-1.422-1.156-1.338c-0.236,0.025-0.703,0.139-0.84,0.283
	c-0.232,0.248,0.111,1.232-0.676,0.797c-0.262-0.725,0.508-1.119,1.115-1.26c0.824-0.191,1.578-0.049,1.877,0.729
	C95.273,65.108,95.31,65.899,95.591,66.787z M92.472,66.797c0.146,1.363,2.461,0.209,2.498-0.451
	c0.018-0.314-0.205-0.557-0.227-0.934C93.769,65.559,92.384,65.979,92.472,66.797z"/>
<path fill-rule="evenodd" clip-rule="evenodd" d="M105.46,60.742c0.637-0.176,1.297-0.072,1.738,0.328
	c0.311,0.279,0.83,1.258,0.725,1.996c-0.055,0.379-0.357,0.971-0.725,1.244c-1.18,0.879-2.738,0.234-3.094-1.023
	c-0.178-0.625,0.008-1.451,0.232-1.797C104.529,61.201,104.863,60.908,105.46,60.742z M105.849,64.442
	c2.57,0.355,1.688-4.375-0.512-3.393C104.064,61.619,104.31,64.231,105.849,64.442z"/>
<path fill-rule="evenodd" clip-rule="evenodd" d="M110.71,59.422c0.205,0.133,0.188,0.631,0.301,0.916
	c0.281-0.318,0.527-0.967,1.088-1.215c0.408-0.18,1.148-0.145,1.293,0.277c0.076,0.227-0.078,0.5-0.227,0.529
	c-0.262,0.053-0.521-0.492-0.938-0.443c-0.617,0.074-0.852,0.717-1.125,1.225c0.248,0.594,0.213,1.449,0.473,1.939
	c0.203,0.381,0.547,0.221,0.912,0.33c-0.5,0.279-1.475,0.439-2.08,0.547c0.045-0.211,0.346-0.244,0.496-0.396
	c0.082-0.086,0.129-0.168,0.168-0.279c-0.117-0.754-0.359-1.738-0.6-2.461c-0.16-0.104-0.438-0.014-0.643-0.041
	c-0.045-0.203,0.211-0.357,0.355-0.482C110.366,59.709,110.56,59.578,110.71,59.422z"/>
<path fill-rule="evenodd" clip-rule="evenodd" d="M61.449,3.782c0.731,0.057,1.459,0.537,1.62,1.621
	c0.061,0.406-0.074,1.008-0.13,1.573c-0.356,3.625-1.061,7.027-2.126,10.241c-0.628,1.894-1.348,3.637-2.339,5.155
	c-1.085,1.663-3.006,3.721-5.906,3.654C47.181,39.875,41.722,53.68,33.272,65.668c0.674,1.137,0.892,2.398,1.366,3.816
	c1.011,3.027,4.922,1.904,7.669,0.658c2.72-1.232,5.185-2.893,7.204-4.326c-2.479,2.098-5.36,4.314-8.981,5.787
	c-3.185,1.297-6.069,0.902-6.982-2.051c-0.292-0.941-0.568-1.922-1.055-2.865c-2.636,3.213-5.75,6.506-9.393,9.287
	c-1.722,1.314-3.825,2.813-6.195,3.764c-1.377,0.553-2.712,0.768-3.961,0.611c-1.631-0.203-3.958-0.846-3.892-3.318
	c0.057-2.125,1.736-3.834,2.954-5.227c2.731-3.121,5.375-6.061,8.97-8.59c1.212-0.854,2.568-1.654,4.184-2.127
	c3.547-1.039,5.731,0.742,7.385,3.217c0.616-0.631,1.08-1.395,1.577-2.123c1.482-2.176,2.812-4.512,4.099-6.85
	c5.123-9.303,9.212-19.371,13-29.492c-2.661-0.894-4.646-2.928-6.075-5.948c-1.003-2.12-1.548-5.321-2.92-7.112
	c-0.619-0.807-1.488-1.433-2.575-0.834c-1.776,0.979-3.023,2.896-3.993,4.531c-1.029,1.734-1.684,3.618-2.229,5.603
	c-0.287,1.042-0.543,2.03-0.716,3.06c-0.172,1.031-0.007,2.233,0.11,3.53c0.103,1.136,0.159,2.437,0.389,3.699
	c0.336,1.843,1.015,4.744,2.759,4.504c0.797-0.11,1.411-0.824,1.889-1.331c0.538-0.57,0.9-1.123,1.294-1.659
	c-0.683,1.049-1.323,2.519-2.672,3.142c-0.998,0.46-1.8,0.038-2.307-0.544c-1.51-1.736-2.01-5.515-2.31-8.012
	c-0.173-1.438-0.31-2.729-0.127-3.921c0.692-4.514,2.266-8.938,5.34-12.131c0.723-0.751,1.77-1.793,3.075-1.976
	c2.058-0.287,3.358,1.666,4.171,3.488c0.664,1.492,1.017,3.283,1.686,4.805c1.212,2.756,2.961,5.091,5.666,5.89
	c2.001-5.007,3.572-10.579,5.834-15.611c0.646-1.439,1.527-3.625,2.812-4.678c0.221-0.181,0.482-0.31,0.719-0.452
	C61.175,3.849,61.312,3.816,61.449,3.782z M59.734,7.283C59.28,8.103,58.9,8.926,58.575,9.66c-2.161,4.875-3.715,10.334-5.562,15.11
	c2.35-0.324,3.662-1.844,4.563-3.327c0.914-1.504,1.57-3.193,2.123-4.904c0.942-2.918,1.56-6.283,2.01-9.58
	c0.101-0.739,0.259-1.465-0.185-1.892c-0.025,0.006-0.05,0.012-0.074,0.018C60.815,5.475,60.147,6.537,59.734,7.283z M25.05,62.418
	c-1.583,0.52-3.008,1.564-4.242,2.537c-2.981,2.352-5.602,5.033-7.884,7.693c-0.932,1.086-1.97,2.205-2.423,3.516
	c-0.822,2.383,1.686,3.096,3.652,2.982c2.247-0.131,4.425-1.641,6.059-2.703c1.688-1.098,2.97-2.197,4.387-3.402
	c2.092-1.781,3.973-3.656,5.62-5.639c0.559-0.674,1.188-1.307,1.585-2.086C30.298,63.073,28.552,61.27,25.05,62.418z"/>
<path fill-rule="evenodd" clip-rule="evenodd" d="M3.819,93.326c0.081-1.965,1.538-3.09,2.726-4.381
	c-0.37,0.559-0.979,1.193-1.455,1.977c-0.391,0.641-1.074,1.768-0.667,2.611c0.443,0.92,2.332,0.91,3.627,0.775
	c3.116-0.322,6.009-1.125,8.988-2.035c1.512-0.461,2.984-0.867,4.395-1.428c5.373-2.131,9.697-5.203,13.586-8.135
	c6.015-4.537,11.084-9.658,15.785-14.996c1.578-1.793,3.188-3.533,4.473-5.479c-0.687-2.098-0.54-3.855,0.181-5.418
	c0.177-0.387,0.583-1.092,1.133-1.186c1.004-0.174,1.025,1.246,0.93,2.025c-0.137,1.104-0.329,1.957-0.567,3.023
	c-0.089,0.4-0.388,1.111-0.315,1.461c0.205,0.988,1.947,1.377,3.151,0.93c1.089-0.404,1.551-1.502,2.071-2.205
	c-0.656-0.963-0.479-2.16-0.225-3.186c0.201-0.811,0.513-1.859,1.622-1.938c0.638-0.045,1.43,0.494,1.455,1.266
	c0.016,0.48-0.354,1.42-0.523,1.906c-0.23,0.662-0.583,1.25-0.718,1.756c0.904,0.344,2.317,0.43,3.438-0.166
	c0.577-0.309,1.051-0.938,1.506-1.436c0.498-0.541,0.975-1.066,1.275-1.576c-0.438-0.607-0.504-1.486-0.258-2.031
	c0.326-0.717,1.344-1.613,2.262-1.42c0.424,0.088,0.604,0.283,0.695,0.738c0.217,1.104-0.879,1.879-1.115,2.723
	c0.699,0.822,1.939,1.76,3.254,1.023c0.885-0.496,1.525-1.75,1.998-2.66c0.227-0.438,0.469-0.93,0.791-1.457
	c0.268-0.441,0.533-1.188,1.115-1.262c0.193-0.023,0.52,0.09,0.621,0.283c0.211,0.395-0.072,0.682-0.014,1.07
	c0.092,0.621,0.646,1.439,0.975,1.896c0.4,0.553,0.93,1.152,1.568,1.08c0.658-0.074,1.072-0.635,1.432-1.1
	c0.355-0.463,0.596-1.113,1.014-1.354c0.48-0.277,1.289-0.355,2.004-0.529c9.996-2.439,20.416-4.752,29.359-6.175
	c-8.279,2.495-17.822,4.624-26.756,6.804c-0.602,0.146-1.232,0.311-1.893,0.502c-0.672,0.193-1.453,0.223-1.939,0.473
	c-0.389,0.201-0.654,0.986-1.004,1.391c-0.348,0.402-0.9,0.914-1.469,1.109c-2.25,0.773-3.318-1.361-4.201-2.967
	c-0.773,1.094-1.35,2.887-2.666,3.813c-1.826,1.283-3.848,0.348-4.912-0.855c-0.781,0.756-1.563,1.984-2.68,2.787
	c-1.36,0.979-3.829,1.055-5.002,0.391c-0.662,0.73-1.293,1.893-2.417,2.408c-1.686,0.771-3.522,0.227-4.4-0.705
	c-4.929,6.141-10.266,11.893-16.478,17.18c-3.101,2.639-6.373,5.172-10.118,7.447c-3.734,2.27-7.872,4.396-12.976,5.617
	c-0.87,0.211-1.74,0.424-2.611,0.637c-1.468,0.246-3.455,0.678-5.182,0.789c-1.938,0.125-3.875,0.063-4.75-1.33
	C3.898,93.649,3.859,93.487,3.819,93.326z M62.717,59.198c0.202-0.705,0.642-1.432,0.617-2.168
	C62.844,57.559,62.668,58.448,62.717,59.198z"/>
</svg>
