<svg xmlns="http://www.w3.org/2000/svg" width="600" height="450" viewBox="0 0 600 450"><defs>
  <filter id="ombre" x="-30%" y="-30%" width="160%" height="160%"><feGaussianBlur stdDeviation="9"/></filter>
  <filter id="grain"><feTurbulence type="fractalNoise" baseFrequency="1.6" numOctaves="2" seed="4"/><feColorMatrix values="0 0 0 0 0.45  0 0 0 0 0.3  0 0 0 0 0.15  0 0 0 0.16 0"/><feComposite in2="SourceGraphic" operator="in"/></filter>
</defs><rect width="600" height="450" fill="#f1e1d4"/><ellipse cx="310" cy="247" rx="166.4" ry="153.6" fill="#3a2a1f" opacity="0.25" filter="url(#ombre)"/><circle cx="300" cy="225" r="160" fill="#b5562f"/><circle cx="300" cy="225" r="137.6" fill="none" stroke="#ecdfc9" stroke-width="3" opacity="0.6"/><circle cx="300" cy="225" r="83.2" fill="#f6efe3"/><path d="M 341.6 215.4 Q 349.2 224.1 339.1 229.6 Q 343.2 240.4 331.9 242.1 Q 332.1 253.6 320.8 251.4 Q 317.1 262.3 307.2 256.4 Q 300.0 265.3 292.8 256.4 Q 282.9 262.3 279.2 251.4 Q 267.9 253.6 268.1 242.1 Q 256.8 240.4 260.9 229.6 Q 250.8 224.1 258.4 215.4 Q 250.8 206.7 260.9 201.2 Q 256.8 190.4 268.1 188.7 Q 267.9 177.2 279.2 179.4 Q 282.9 168.5 292.8 174.4 Q 300.0 165.5 307.2 174.4 Q 317.1 168.5 320.8 179.4 Q 332.1 177.2 331.9 188.7 Q 343.2 190.4 339.1 201.2 Q 349.2 206.7 341.6 215.4 Z" fill="none" stroke="#5f6e52" stroke-width="3.7439999999999998"/><path d="M 282.528 199.592 L 300 234.12 L 317.472 199.592" fill="none" stroke="#5f6e52" stroke-width="5.408" stroke-linecap="round" stroke-linejoin="round"/><path d="M 248.8 273 h 102.4" stroke="#5f6e52" stroke-width="5" stroke-linecap="round"/><path d="M 264.8 289 h 70.4" stroke="#5f6e52" stroke-width="3" stroke-linecap="round" opacity="0.6"/><circle cx="462.8539094650206" cy="378.67057613168726" r="3.3354595336076818" fill="#e3ad63"/><circle cx="474.05692729766804" cy="354.23189300411525" r="1.5714763374485596" fill="#c98b46"/><circle cx="508.6344307270233" cy="357.4475308641975" r="1.9103737997256516" fill="#e3ad63"/><circle cx="470.78395061728395" cy="377.0582304526749" r="1.8459790809327847" fill="#e3ad63"/><circle cx="492.8511659807956" cy="357.36028806584363" r="2.2424897119341565" fill="#c98b46"/><circle cx="446.4410150891632" cy="368.8722222222222" r="4.612251371742112" fill="#e3ad63"/><circle cx="466.86213991769546" cy="379.0014403292181" r="3.726868998628258" fill="#e3ad63"/><circle cx="490.90466392318245" cy="342.71090534979425" r="3.5616512345679014" fill="#e3ad63"/><circle cx="487.9513031550068" cy="373.1858024691358" r="4.073388203017833" fill="#e3ad63"/><circle cx="504.4218106995885" cy="368.50020576131686" r="4.311462620027434" fill="#c98b46"/></svg>